<svg width="20" height="20" viewBox="0 0 20 20" fill="none" xmlns="http://www.w3.org/2000/svg">
<g clip-path="url(#clip0_165_31)">
<path d="M19.824 3.97217L13.7584 9.99869L19.824 16.0252C19.9337 15.796 20.0002 15.5427 20.0002 15.2721V4.72525C20.0002 4.45467 19.9337 4.20135 19.824 3.97217Z" fill="#F18E38"/>
<path d="M18.242 2.96875H1.75765C1.48706 2.96875 1.23374 3.03527 1.00456 3.14492L8.75702 10.8583C9.44249 11.5438 10.5572 11.5438 11.2426 10.8583L18.9951 3.14492C18.7659 3.03527 18.5126 2.96875 18.242 2.96875Z" fill="#F18E38"/>
<path d="M0.176172 3.97217C0.0665235 4.20135 0 4.45467 0 4.72525V15.2721C0 15.5427 0.0665235 15.7961 0.176172 16.0252L6.24176 9.99869L0.176172 3.97217Z" fill="#F18E38"/>
<path d="M12.9295 10.8291L12.0712 11.6874C10.9291 12.8296 9.07058 12.8296 7.92843 11.6874L7.07015 10.8291L1.00456 16.8556C1.23374 16.9653 1.48706 17.0318 1.75765 17.0318H18.242C18.5126 17.0318 18.7659 16.9653 18.9951 16.8556L12.9295 10.8291Z" fill="#F18E38"/>
</g>
<defs>
<clipPath id="clip0_165_31">
<rect width="20" height="20" fill="white"/>
</clipPath>
</defs>
</svg>
