<svg width="20" height="20" viewBox="0 0 20 20" fill="none" xmlns="http://www.w3.org/2000/svg">
<g clip-path="url(#clip0_165_38)">
<path d="M8.25995 5.04057C8.0212 2.29432 5.1562 0.946819 5.03495 0.891819C4.9216 0.838536 4.79458 0.821512 4.6712 0.843069C1.3637 1.39182 0.866199 3.31682 0.846199 3.39682C0.818988 3.5083 0.823316 3.62516 0.858699 3.73432C4.8037 15.9743 13.0024 18.2431 15.6974 18.9893C15.9049 19.0468 16.0762 19.0931 16.2062 19.1356C16.3545 19.184 16.5157 19.1747 16.6574 19.1093C16.7399 19.0718 18.6874 18.1543 19.1637 15.1618C19.1848 15.0312 19.1638 14.8972 19.1037 14.7793C19.0612 14.6968 18.0424 12.7581 15.2174 12.0731C15.1216 12.0486 15.0213 12.0477 14.925 12.0706C14.8288 12.0934 14.7395 12.1393 14.6649 12.2043C13.7737 12.9656 12.5424 13.7768 12.0112 13.8606C8.44995 12.1193 6.4612 8.77807 6.3862 8.14432C6.34245 7.78807 7.1587 6.53682 8.09745 5.51932C8.15645 5.45528 8.20139 5.3796 8.22938 5.29715C8.25737 5.21469 8.26778 5.12729 8.25995 5.04057Z" fill="#F18E38"/>
</g>
<defs>
<clipPath id="clip0_165_38">
<rect width="20" height="20" fill="white"/>
</clipPath>
</defs>
</svg>
