<svg width="378" height="343" viewBox="0 0 378 343" fill="none" xmlns="http://www.w3.org/2000/svg">
<path d="M296.099 315.13H159.599C158.277 315.13 157.002 314.642 156.02 313.758C155.037 312.875 154.415 311.659 154.275 310.345L128.214 66.7121C128.134 65.9651 128.212 65.2097 128.443 64.4949C128.674 63.7802 129.053 63.122 129.555 62.5633C130.058 62.0046 130.672 61.5577 131.358 61.2519C132.044 60.9461 132.787 60.788 133.538 60.7881H270.038C271.359 60.7882 272.634 61.277 273.617 62.1603C274.6 63.0436 275.221 64.2592 275.362 65.5731L301.428 309.204C301.508 309.952 301.43 310.708 301.199 311.423C300.968 312.138 300.588 312.797 300.086 313.356C299.583 313.915 298.968 314.362 298.281 314.668C297.594 314.973 296.851 315.131 296.099 315.13V315.13Z" fill="#810A8B"/>
<path d="M287.764 299.308H173.564C172.417 299.308 171.309 298.884 170.456 298.117C169.602 297.35 169.062 296.294 168.94 295.153L144.455 75.4673C144.386 74.8186 144.454 74.1625 144.654 73.5417C144.855 72.9209 145.184 72.3493 145.62 71.864C146.056 71.3788 146.59 70.9907 147.186 70.7251C147.782 70.4595 148.427 70.3222 149.079 70.3223H263.279C264.427 70.3222 265.534 70.7465 266.387 71.5135C267.241 72.2806 267.781 73.3362 267.903 74.4773L292.388 294.163C292.458 294.812 292.39 295.468 292.189 296.089C291.988 296.71 291.659 297.281 291.223 297.767C290.787 298.252 290.254 298.64 289.658 298.906C289.062 299.171 288.417 299.308 287.764 299.308Z" fill="url(#paint0_linear_2005_6834)"/>
<path d="M196.925 203.602C196.925 204.986 196.652 206.356 196.123 207.635C195.593 208.913 194.817 210.075 193.839 211.054C192.86 212.032 191.698 212.809 190.42 213.338C189.141 213.868 187.771 214.14 186.387 214.14C183.592 214.14 180.911 213.03 178.935 211.053C176.959 209.077 175.849 206.397 175.849 203.602C175.849 200.807 176.959 198.127 178.935 196.15C180.911 194.174 183.592 193.064 186.387 193.064C189.181 193.064 191.862 194.174 193.838 196.15C195.815 198.127 196.925 200.807 196.925 203.602Z" fill="#F37168"/>
<path d="M186.284 199.899C186.284 199.899 182.604 196.654 180 199.772C176.425 204.052 186.284 209.497 186.284 209.497C186.284 209.497 196.321 203.878 192.81 199.549C190.154 196.278 186.284 199.899 186.284 199.899Z" fill="white"/>
<path d="M254.63 203.602C254.63 206.673 253.41 209.618 251.238 211.789C249.067 213.961 246.122 215.181 243.051 215.181C239.98 215.181 237.035 213.961 234.864 211.789C232.693 209.618 231.473 206.673 231.473 203.602C231.473 200.531 232.693 197.587 234.864 195.415C237.035 193.244 239.98 192.024 243.051 192.024C246.122 192.024 249.066 193.244 251.238 195.415C253.409 197.586 254.629 200.531 254.63 203.602V203.602Z" fill="#430A56"/>
<path d="M242.793 195.975C244.293 195.768 245.593 199.496 245.485 200.686C245.377 201.876 248.285 200.531 249.679 201.566C251.073 202.601 250.663 207.986 249.679 208.348C248.695 208.71 244.728 208.762 243.45 208.089C242.805 207.701 242.061 207.511 241.31 207.542L240.652 201.909C241.272 201.683 241.842 201.338 242.329 200.892C243.208 200.114 242.793 195.975 242.793 195.975ZM236.114 209.175C236.477 209.486 240.566 210.469 240.773 208.398C240.98 206.327 239.945 201.926 239.945 201.926C239.945 201.926 237.099 201.782 236.114 202.286C235.735 202.484 235.752 208.867 236.115 209.178L236.114 209.175Z" fill="white"/>
<path d="M215.439 199.818H201.718C200.366 199.818 199.27 200.914 199.27 202.266V202.267C199.27 203.619 200.366 204.715 201.718 204.715H215.439C216.791 204.715 217.887 203.619 217.887 202.267V202.266C217.887 200.914 216.791 199.818 215.439 199.818Z" fill="#810A8B"/>
<path d="M215.439 206.164H201.718C200.366 206.164 199.27 207.26 199.27 208.612V208.613C199.27 209.965 200.366 211.061 201.718 211.061H215.439C216.791 211.061 217.887 209.965 217.887 208.613V208.612C217.887 207.26 216.791 206.164 215.439 206.164Z" fill="#810A8B"/>
<path d="M274.861 199.818H261.14C259.788 199.818 258.692 200.914 258.692 202.266V202.267C258.692 203.619 259.788 204.715 261.14 204.715H274.861C276.213 204.715 277.309 203.619 277.309 202.267V202.266C277.309 200.914 276.213 199.818 274.861 199.818Z" fill="#810A8B"/>
<path d="M274.861 206.164H261.14C259.788 206.164 258.692 207.26 258.692 208.612V208.613C258.692 209.965 259.788 211.061 261.14 211.061H274.861C276.213 211.061 277.309 209.965 277.309 208.613V208.612C277.309 207.26 276.213 206.164 274.861 206.164Z" fill="#810A8B"/>
<path d="M273.993 239.934H184.553C184.023 239.932 183.515 239.721 183.14 239.346C182.766 238.972 182.555 238.464 182.553 237.934C182.555 237.404 182.766 236.897 183.14 236.522C183.515 236.147 184.023 235.936 184.553 235.934H273.993C274.523 235.936 275.03 236.147 275.405 236.522C275.779 236.897 275.991 237.404 275.993 237.934C275.991 238.464 275.779 238.972 275.405 239.346C275.03 239.721 274.523 239.932 273.993 239.934V239.934Z" fill="#810A8B"/>
<path d="M275.31 247.486H185.87C185.34 247.484 184.833 247.273 184.458 246.898C184.083 246.523 183.872 246.016 183.87 245.486C183.872 244.956 184.083 244.448 184.458 244.074C184.833 243.699 185.34 243.488 185.87 243.486H275.31C275.84 243.488 276.348 243.699 276.722 244.074C277.097 244.448 277.308 244.956 277.31 245.486C277.308 246.016 277.097 246.523 276.722 246.898C276.348 247.273 275.84 247.484 275.31 247.486V247.486Z" fill="#810A8B"/>
<path d="M261.703 255.683H172.263C171.733 255.681 171.225 255.47 170.851 255.095C170.476 254.721 170.265 254.213 170.263 253.683C170.265 253.153 170.476 252.646 170.851 252.271C171.225 251.896 171.733 251.685 172.263 251.683H261.703C262.233 251.685 262.74 251.896 263.115 252.271C263.49 252.646 263.701 253.153 263.703 253.683C263.701 254.213 263.49 254.721 263.115 255.095C262.74 255.47 262.233 255.681 261.703 255.683V255.683Z" fill="#810A8B"/>
<path d="M160.383 315.13H155.569C154.689 315.13 153.839 314.805 153.184 314.218C152.528 313.63 152.112 312.821 152.016 311.946L124.916 65.1311C124.856 64.5844 124.912 64.0312 125.08 63.5076C125.248 62.9839 125.525 62.5016 125.892 62.092C126.259 61.6825 126.708 61.3548 127.21 61.1305C127.712 60.9062 128.256 60.7902 128.806 60.7901H132.937C133.901 60.7903 134.831 61.1461 135.549 61.7896C136.267 62.4331 136.722 63.3188 136.827 64.2771L163.934 311.167C163.989 311.666 163.937 312.171 163.784 312.649C163.63 313.127 163.378 313.567 163.043 313.941C162.708 314.315 162.298 314.614 161.84 314.819C161.381 315.024 160.885 315.13 160.383 315.13V315.13Z" fill="#430A56"/>
<path d="M254.698 308.122H230.388C230.03 308.121 229.687 307.979 229.434 307.725C229.181 307.472 229.039 307.129 229.038 306.771C229.039 306.414 229.182 306.071 229.435 305.818C229.688 305.565 230.03 305.422 230.388 305.421H254.698C255.056 305.422 255.398 305.565 255.651 305.818C255.904 306.071 256.047 306.414 256.048 306.771C256.047 307.129 255.905 307.472 255.652 307.725C255.399 307.979 255.056 308.121 254.698 308.122V308.122Z" fill="#0F2D5C"/>
<path d="M226.957 67.3371C227.914 67.3371 228.691 66.5608 228.691 65.6031C228.691 64.6455 227.914 63.8691 226.957 63.8691C225.999 63.8691 225.223 64.6455 225.223 65.6031C225.223 66.5608 225.999 67.3371 226.957 67.3371Z" fill="#0F2D5C"/>
<path d="M233.76 67.3371C234.718 67.3371 235.494 66.5608 235.494 65.6031C235.494 64.6455 234.718 63.8691 233.76 63.8691C232.803 63.8691 232.026 64.6455 232.026 65.6031C232.026 66.5608 232.803 67.3371 233.76 67.3371Z" fill="#0F2D5C"/>
<path d="M216.152 67.3371H197.477C197.018 67.3358 196.577 67.1527 196.252 66.8278C195.928 66.5029 195.744 66.0626 195.743 65.6031C195.744 65.1437 195.928 64.7034 196.252 64.3785C196.577 64.0536 197.018 63.8704 197.477 63.8691H216.152C216.612 63.8704 217.052 64.0536 217.377 64.3785C217.702 64.7034 217.885 65.1437 217.886 65.6031C217.885 66.0626 217.702 66.5029 217.377 66.8278C217.052 67.1527 216.612 67.3358 216.152 67.3371V67.3371Z" fill="#0F2D5C"/>
<path d="M235.017 223.993H87.9639C83.5456 223.993 79.9639 227.575 79.9639 231.993V309.795C79.9639 314.213 83.5456 317.795 87.9639 317.795H235.017C239.435 317.795 243.017 314.213 243.017 309.795V231.993C243.017 227.575 239.435 223.993 235.017 223.993Z" fill="#0F2D5C"/>
<path d="M231.829 228.128H91.1504C88.9413 228.128 87.1504 229.919 87.1504 232.128V309.661C87.1504 311.87 88.9413 313.661 91.1504 313.661H231.829C234.039 313.661 235.829 311.87 235.829 309.661V232.128C235.829 229.919 234.039 228.128 231.829 228.128Z" fill="#7A1999"/>
<g opacity="0.4">
<g opacity="0.4">
<path opacity="0.4" d="M159.49 296.997C151.523 296.988 143.885 293.819 138.251 288.185C132.618 282.551 129.449 274.913 129.439 266.946C129.448 258.979 132.618 251.34 138.251 245.706C143.885 240.072 151.523 236.903 159.49 236.894C167.458 236.903 175.097 240.072 180.73 245.706C186.364 251.34 189.533 258.978 189.542 266.946C189.533 274.913 186.364 282.552 180.73 288.185C175.096 293.819 167.458 296.988 159.49 296.997V296.997ZM159.49 240.897C152.584 240.905 145.963 243.652 141.079 248.535C136.195 253.419 133.448 260.04 133.44 266.947C133.448 273.853 136.195 280.475 141.079 285.358C145.963 290.241 152.584 292.988 159.49 292.996C166.397 292.988 173.018 290.241 177.902 285.358C182.785 280.475 185.533 273.853 185.541 266.947C185.533 260.04 182.786 253.419 177.903 248.535C173.019 243.651 166.397 240.904 159.49 240.896V240.897Z" fill="white"/>
</g>
</g>
<path opacity="0.4" d="M174.655 263.618C175.239 263.956 175.724 264.441 176.061 265.025C176.398 265.609 176.576 266.272 176.576 266.947C176.576 267.621 176.398 268.284 176.061 268.868C175.724 269.453 175.239 269.938 174.655 270.275L165.196 275.736L155.737 281.197C155.152 281.535 154.49 281.712 153.815 281.712C153.14 281.712 152.477 281.535 151.893 281.197C151.309 280.86 150.824 280.375 150.486 279.791C150.149 279.207 149.971 278.544 149.971 277.869V256.018C149.971 255.343 150.148 254.681 150.486 254.096C150.823 253.512 151.308 253.027 151.893 252.689C152.477 252.352 153.14 252.174 153.815 252.174C154.489 252.174 155.152 252.352 155.737 252.689L165.196 258.151L174.655 263.618Z" fill="white"/>
<path opacity="0.4" d="M103.444 304.602C103.588 304.685 103.706 304.804 103.789 304.948C103.872 305.091 103.916 305.254 103.916 305.42C103.916 305.585 103.872 305.748 103.789 305.892C103.706 306.035 103.588 306.155 103.444 306.238L101.119 307.581L98.793 308.924C98.6494 309.007 98.4866 309.05 98.3208 309.05C98.155 309.05 97.9922 309.006 97.8486 308.924C97.7051 308.841 97.5856 308.721 97.5027 308.578C97.4197 308.434 97.3761 308.272 97.376 308.106V302.736C97.3761 302.57 97.4197 302.407 97.5027 302.264C97.5856 302.12 97.7051 302.001 97.8486 301.918C97.9922 301.835 98.155 301.791 98.3208 301.791C98.4866 301.791 98.6494 301.835 98.793 301.918L101.119 303.261L103.444 304.602Z" fill="white"/>
<path opacity="0.4" d="M111.873 309.051C111.705 309.051 111.544 308.984 111.425 308.865C111.306 308.746 111.24 308.585 111.239 308.417V302.417C111.24 302.249 111.306 302.088 111.425 301.969C111.544 301.85 111.705 301.783 111.873 301.783C112.041 301.783 112.202 301.85 112.321 301.969C112.44 302.088 112.507 302.249 112.507 302.417V308.417C112.507 308.585 112.44 308.746 112.321 308.865C112.202 308.984 112.041 309.051 111.873 309.051V309.051Z" fill="white"/>
<path opacity="0.4" d="M114.723 309.051C114.555 309.051 114.394 308.984 114.275 308.865C114.156 308.746 114.089 308.585 114.089 308.417V302.417C114.089 302.249 114.156 302.088 114.275 301.969C114.394 301.85 114.555 301.783 114.723 301.783C114.891 301.784 115.052 301.851 115.17 301.969C115.289 302.088 115.355 302.249 115.356 302.417V308.417C115.355 308.585 115.289 308.746 115.17 308.865C115.052 308.984 114.891 309.051 114.723 309.051V309.051Z" fill="white"/>
<path opacity="0.4" d="M221.071 304.696V304.237C221.071 303.955 221.183 303.684 221.383 303.484C221.582 303.284 221.853 303.172 222.136 303.172H222.685V301.789H221.407C220.951 301.789 220.513 301.97 220.19 302.293C219.868 302.615 219.687 303.053 219.687 303.509V304.696H221.071Z" fill="white"/>
<path opacity="0.4" d="M225.568 305.963V306.603C225.568 306.886 225.456 307.157 225.256 307.356C225.056 307.556 224.786 307.668 224.503 307.668H223.954V309.051H225.232C225.688 309.051 226.126 308.87 226.448 308.548C226.771 308.225 226.952 307.788 226.952 307.331V305.963H225.568Z" fill="white"/>
<path opacity="0.4" d="M223.953 303.168H224.502C224.785 303.168 225.055 303.28 225.255 303.48C225.455 303.68 225.567 303.951 225.567 304.233V304.692H226.95V303.505C226.95 303.049 226.769 302.611 226.446 302.289C226.124 301.966 225.686 301.785 225.23 301.785H223.952L223.953 303.168Z" fill="white"/>
<path opacity="0.4" d="M222.685 307.668H222.136C221.997 307.668 221.858 307.641 221.729 307.587C221.6 307.534 221.482 307.455 221.383 307.356C221.284 307.257 221.206 307.14 221.152 307.011C221.099 306.882 221.071 306.743 221.071 306.603V305.963H219.688V307.331C219.688 307.788 219.87 308.225 220.192 308.548C220.515 308.87 220.952 309.051 221.408 309.051H222.686L222.685 307.668Z" fill="white"/>
<path opacity="0.4" d="M203.217 304.695H130.102C129.947 304.211 129.642 303.788 129.231 303.489C128.82 303.189 128.324 303.028 127.816 303.028C127.307 303.028 126.812 303.189 126.401 303.489C125.99 303.788 125.685 304.211 125.53 304.695H123.447C123.253 304.696 123.067 304.773 122.929 304.91C122.792 305.048 122.715 305.234 122.714 305.428C122.714 305.622 122.792 305.808 122.929 305.946C123.066 306.083 123.252 306.161 123.447 306.162H125.53C125.685 306.646 125.99 307.068 126.401 307.368C126.812 307.668 127.307 307.829 127.816 307.829C128.324 307.829 128.82 307.668 129.231 307.368C129.642 307.068 129.947 306.646 130.102 306.162H203.217C203.411 306.161 203.598 306.084 203.735 305.946C203.873 305.809 203.95 305.622 203.951 305.428C203.95 305.233 203.872 305.047 203.735 304.91C203.597 304.773 203.411 304.695 203.217 304.695V304.695Z" fill="white"/>
<path opacity="0.4" d="M208.448 303.028H206.849V308.121H208.448L211.249 310.489V300.66L208.448 303.028Z" fill="white"/>
<path opacity="0.4" d="M214.225 305.43L214.696 304.959C214.774 304.88 214.818 304.774 214.818 304.664C214.818 304.553 214.774 304.447 214.696 304.369C214.618 304.291 214.511 304.247 214.401 304.247C214.29 304.247 214.184 304.291 214.106 304.369L213.635 304.841L213.163 304.369C213.085 304.291 212.979 304.247 212.868 304.247C212.758 304.247 212.652 304.291 212.574 304.369C212.496 304.447 212.452 304.553 212.452 304.664C212.452 304.774 212.496 304.88 212.574 304.959L213.045 305.43L212.574 305.902C212.496 305.98 212.452 306.086 212.452 306.197C212.452 306.307 212.496 306.413 212.574 306.492C212.652 306.57 212.758 306.614 212.868 306.614C212.979 306.614 213.085 306.57 213.163 306.492L213.635 306.02L214.106 306.492C214.184 306.57 214.29 306.614 214.401 306.614C214.511 306.614 214.618 306.57 214.696 306.492C214.774 306.413 214.818 306.307 214.818 306.197C214.818 306.086 214.774 305.98 214.696 305.902L214.225 305.43Z" fill="white"/>
<path d="M360.918 328.175C360.918 328.175 372.798 329.495 375.626 328.175C378.454 326.855 379.397 329.901 372.043 333.563C364.689 337.225 361.483 340.054 359.032 339.112C356.581 338.17 354.884 333.438 355.261 330.712C355.638 327.986 360.918 328.175 360.918 328.175Z" fill="#0F2D5C"/>
<path d="M307.553 326.667C307.553 326.667 306.987 335.719 309.815 337.604C312.643 339.489 316.073 342.035 309.439 342.035C302.805 342.035 301.039 338.924 298.964 335.718C296.889 332.512 294.733 330.029 297.683 327.861C300.633 325.693 300.764 323.649 301.33 323.649C301.896 323.649 307.553 326.667 307.553 326.667Z" fill="#0F2D5C"/>
<path d="M346.768 241.717C346.768 294.891 308.375 331.763 308.375 331.763C308.375 331.763 299.251 328.549 298.968 325.155C298.685 321.761 313.945 297.436 313.945 279.335V224.746L346.768 241.717Z" fill="#0E3A82"/>
<path d="M313.943 224.746V269.865C319.884 283.302 323.269 297.728 323.927 312.405C334.572 296.475 346.766 271.685 346.766 241.716L313.943 224.746Z" fill="#0F2D5C"/>
<path d="M313.957 215.695C313.108 260.101 351.701 332.226 354.351 333.357C357.001 334.488 364.503 330.726 364.072 327.983C353.837 262.93 351.857 219.655 351.857 219.655L313.957 215.695Z" fill="#0E3A82"/>
<path d="M356.382 159.278C357 159.82 357.761 160.172 358.574 160.291C359.387 160.41 360.217 160.291 360.965 159.949C363.51 158.723 372.805 152.155 372.522 150.549C372.239 148.943 367.896 148.563 367.896 148.563C367.896 148.563 354.441 159.199 356.382 159.278Z" fill="#255096"/>
<path d="M358.83 159.028C357.087 158.749 362.823 154.188 364.698 152.303C365.658 151.309 366.689 150.384 367.783 149.537C367.783 149.537 370.989 149.927 370.989 150.549C370.989 151.171 361.795 158.512 361.795 158.512C360.834 158.815 359.837 158.989 358.83 159.028Z" fill="#FFC34E"/>
<path d="M347.577 167.233C347.577 167.233 350.924 161.576 352.527 160.068C354.13 158.56 359.541 155.635 360.362 155.617C361.762 155.586 355.544 159.785 355.544 159.785C355.544 159.785 356.392 165.253 355.638 167.233C354.884 169.213 346.964 171.853 346.964 171.853L347.577 167.233Z" fill="#F09959"/>
<path d="M341.354 173.171C341.354 173.171 346.822 164.971 348.048 165.534C349.274 166.097 352.573 173.171 352.573 173.171C352.573 173.171 342.957 183.165 342.957 181.279C342.957 179.393 341.354 173.171 341.354 173.171Z" fill="#91D5FF"/>
<path d="M326.231 129.24C326.231 129.24 320.574 149.228 316.803 157.525C313.032 165.822 311.146 181.285 311.903 208.439C312.66 235.593 307.378 234.839 315.298 238.233C323.218 241.627 351.504 235.97 355.275 227.296C359.046 218.622 352.75 183.307 343.395 170.348C334.16 157.554 330.007 153 330.007 149.982C330.007 146.964 333.657 134.142 333.657 134.142L326.231 129.24Z" fill="#F09959"/>
<path d="M355.271 227.297C359.042 218.623 352.746 183.308 343.391 170.349C339.091 164.391 335.891 160.22 333.702 157.159C329.254 154.409 324.5 152.191 319.535 150.549C318.586 153.223 317.647 155.668 316.802 157.526C313.031 165.826 311.145 181.286 311.902 208.44C312.659 235.594 307.377 234.84 315.297 238.234C323.217 241.628 351.5 235.972 355.271 227.297Z" fill="#B3E2FF"/>
<path d="M316.173 146.969C316.267 145.417 336.413 153.38 336.539 154.889C337.014 158.41 338.019 161.838 339.522 165.057C341.19 168.089 311.475 185.024 312.567 176.779C313.659 168.534 315.922 151.114 316.173 146.969Z" fill="#B3E2FF"/>
<path d="M330.02 150.319C330.01 150.205 330.003 150.092 330.003 149.982C330.003 146.965 333.653 134.142 333.653 134.142L326.231 129.242C326.231 129.242 324.918 133.883 323.131 139.619C325.44 146.499 327.601 148.851 330.02 150.319Z" fill="#E38540"/>
<path d="M347.042 139.027C345.474 146.135 340.564 151.19 334.89 149.8C331.791 148.802 329.187 146.663 327.607 143.816C326.027 140.969 325.589 137.627 326.382 134.469C328.091 127.393 333.847 122.62 339.551 123.879C345.255 125.138 348.61 131.919 347.042 139.027Z" fill="#F09959"/>
<path d="M353.483 185.299C358.632 176.406 359.208 168.099 362.857 165.506C367.99 161.857 372.205 153.696 370.347 153.374C368.489 153.052 360.964 159.946 360.964 159.946C360.964 159.946 362.922 157.266 362.454 157.046C361.986 156.826 358.196 159.574 357.609 162.824C357.022 166.074 349.74 181.012 343.632 185.796C337.524 190.58 348.334 194.193 353.483 185.299Z" fill="#F09959"/>
<path d="M320.125 162.892C311 165.164 315.174 192.719 322.867 209.062C330.56 225.405 345.016 211.286 350.422 207.282C352.095 206.078 353.548 204.593 354.716 202.895C352.98 193.143 350.005 182.681 346.332 175.319C337.72 185.428 333.625 159.531 320.125 162.892Z" fill="#91D5FF"/>
<path d="M322.865 160.913C311.391 162.063 317.673 190.707 326.065 202.273C334.457 213.839 346.399 202.65 350.165 195.988C353.931 189.326 361.574 177.996 361.574 170.625C361.574 169.242 358.745 168.959 355.351 169.21C352.151 169.447 337.716 189.324 337.716 189.324C337.716 189.324 332.898 159.908 322.865 160.913Z" fill="#B3E2FF"/>
<path d="M350.546 124.206C357.562 127.16 353.359 136.506 349.66 136.854C345.961 137.202 341.683 130.383 339.486 130.154C337.289 129.925 339.93 133.969 337.974 134.894C336.923 135.32 335.983 135.983 335.229 136.831C334.474 137.679 333.925 138.689 333.624 139.783C333.054 142.211 331.493 147.495 334.045 147.726C336.597 147.957 339.372 145.183 341.106 145.067C342.2 145.007 343.296 145.138 344.346 145.453C344.346 145.453 339.945 151.541 336.708 151.888C333.471 152.235 329.947 147.508 327.434 143.513C324.921 139.518 325.988 136.856 325.988 136.856C325.988 136.856 323.417 139.75 321.799 139.518C320.181 139.286 324.227 136.975 324.342 130.154C324.457 123.333 327.463 119.754 331.163 119.754C334.863 119.754 334.4 117.871 340.05 118.02C345.141 118.144 348.899 123.513 350.546 124.206Z" fill="#0F2D5C"/>
<path d="M335.119 138.142C335.283 139.903 334.379 141.427 333.099 141.542C331.819 141.657 330.651 140.329 330.487 138.568C330.323 136.807 331.227 135.283 332.507 135.168C333.787 135.053 334.956 136.381 335.119 138.142Z" fill="#F09959"/>
<path d="M15.7722 309.253C9.71415 316.003 -1.623 314.996 0.195003 317.907C2.013 320.818 10.1651 320.072 14.7521 319.828C22.3801 319.422 20.2721 315.051 20.8781 313.493C21.4841 311.935 15.7722 309.253 15.7722 309.253Z" fill="#0F2D5C"/>
<path d="M67.1828 213.797C67.1828 213.797 29.333 242.873 29.853 248.844C30.373 254.815 57.753 304.632 60.029 304.644C62.305 304.656 67.467 302.097 68.239 300.911C69.011 299.725 66.717 265.23 63.862 261.711C61.007 258.192 85.7438 222.883 85.7438 222.883L67.1828 213.797Z" fill="#0F2D5C"/>
<path d="M100.078 207.567C100.078 207.567 108.723 227.297 103.686 232.749C98.649 238.201 80.9731 242.235 75.0251 251.181C61.9491 270.85 61.7851 284.793 43.8721 299.864C25.9591 314.935 20.8052 315.304 20.8052 315.304L14.7959 310.035C14.7959 310.035 34.7862 282.853 42.5742 261.046C50.3622 239.239 70.874 213.537 70.874 213.537L100.078 207.567Z" fill="#0E3A82"/>
<path d="M64.866 161.131C64.3192 161.611 63.6452 161.922 62.9253 162.028C62.2054 162.133 61.4705 162.028 60.8091 161.725C58.5551 160.64 50.3249 154.825 50.5759 153.405C50.8269 151.985 54.676 151.646 54.676 151.646C54.676 151.646 66.586 161.064 64.866 161.131Z" fill="#255096"/>
<path d="M62.6987 160.912C64.2417 160.665 59.1637 156.627 57.5037 154.957C56.6526 154.076 55.7396 153.258 54.7717 152.508C54.7717 152.508 51.9326 152.854 51.9326 153.408C51.9326 153.962 60.0728 160.459 60.0728 160.459C60.924 160.726 61.8071 160.878 62.6987 160.912V160.912Z" fill="#FFC34E"/>
<path d="M72.6628 168.178C72.6628 168.178 69.6988 163.169 68.2798 161.833C66.8608 160.497 62.0688 157.908 61.3418 157.892C60.0988 157.865 65.6086 161.582 65.6086 161.582C65.6086 161.582 64.8576 166.424 65.5256 168.182C66.1936 169.94 73.2058 172.273 73.2058 172.273L72.6628 168.178Z" fill="#F09959"/>
<path d="M78.1733 173.434C78.1733 173.434 73.3313 166.171 72.2463 166.672C71.1613 167.173 68.2393 173.434 68.2393 173.434C68.2393 173.434 76.7544 182.283 76.7544 180.613C77.0635 178.19 77.5376 175.792 78.1733 173.434V173.434Z" fill="#FB8627"/>
<path d="M91.5623 134.538C91.5623 134.538 96.5715 152.238 99.9105 159.582C103.249 166.926 104.919 180.619 104.251 204.662C103.583 228.705 108.258 228.037 101.246 231.042C94.2344 234.047 69.1893 229.042 65.8463 221.358C62.5033 213.674 68.0823 182.409 76.3653 170.935C84.5433 159.607 88.2193 155.574 88.2193 152.903C88.2193 150.232 84.9874 138.878 84.9874 138.878L91.5623 134.538Z" fill="#F09959"/>
<path d="M65.8496 221.358C62.5106 213.678 68.0857 182.41 76.3687 170.936C80.1767 165.661 83.0085 161.968 84.9475 159.257C88.8852 156.822 93.0949 154.857 97.4905 153.404C98.3305 155.772 99.1617 157.937 99.9097 159.582C103.249 166.928 104.918 180.619 104.25 204.662C103.582 228.705 108.258 228.037 101.246 231.042C94.2336 234.047 69.1886 229.039 65.8496 221.358Z" fill="url(#paint1_linear_2005_6834)"/>
<path d="M100.467 150.232C100.384 148.858 82.5465 155.909 82.4345 157.245C82.0137 160.361 81.1231 163.395 79.7934 166.245C78.3154 168.93 104.626 183.924 103.659 176.624C102.692 169.324 100.689 153.905 100.467 150.232Z" fill="url(#paint2_linear_2005_6834)"/>
<path d="M88.2083 153.202C88.2187 153.102 88.2239 153.002 88.2241 152.902C88.2241 150.23 84.9922 138.877 84.9922 138.877L91.5632 134.536C91.5632 134.536 92.7262 138.645 94.3042 143.724C92.2632 149.823 90.3533 151.902 88.2083 153.202Z" fill="#E38540"/>
<path d="M75.0289 143.174C76.2429 148.674 80.0429 152.587 84.4339 151.511C86.8328 150.739 88.8479 149.083 90.0706 146.879C91.2934 144.675 91.632 142.089 91.0179 139.645C89.6949 134.169 85.241 130.474 80.826 131.445C76.411 132.416 73.8129 137.673 75.0289 143.174Z" fill="#F09959"/>
<path d="M67.4333 184.173C62.8733 176.299 62.3645 168.944 59.1335 166.648C54.5895 163.417 50.8564 156.191 52.5024 155.907C54.1484 155.623 60.8093 161.726 60.8093 161.726C60.8093 161.726 59.0755 159.353 59.4895 159.155C59.9035 158.957 63.2595 161.393 63.7805 164.271C64.3015 167.149 70.7475 180.371 76.1555 184.61C81.5635 188.849 71.9933 192.047 67.4333 184.173Z" fill="#F09959"/>
<path d="M96.9659 164.333C105.046 166.344 101.35 190.743 94.5389 205.213C87.7279 219.683 74.928 207.182 70.139 203.638C68.6584 202.571 67.3728 201.257 66.339 199.753C67.875 191.119 70.5091 181.853 73.7611 175.337C81.3911 184.286 85.0159 161.357 96.9659 164.333Z" fill="url(#paint3_linear_2005_6834)"/>
<path d="M94.5417 162.58C104.702 163.599 99.1417 188.96 91.7097 199.201C84.2777 209.442 73.7097 199.535 70.3667 193.636C67.0237 187.737 60.2666 177.706 60.2666 171.179C60.2666 169.955 62.7666 169.704 65.7766 169.927C68.6066 170.137 81.3916 187.736 81.3916 187.736C81.3916 187.736 85.6587 161.692 94.5417 162.58Z" fill="url(#paint4_linear_2005_6834)"/>
<path d="M60.0291 298.433C60.4871 309.333 48.029 318.163 53.218 318.942C58.407 319.721 62.4982 316.211 64.8682 313.552C67.2382 310.893 69.8122 310.107 69.1182 307.095C68.4242 304.083 68.3791 297.731 67.6541 295.654C66.9291 293.577 60.0291 298.433 60.0291 298.433Z" fill="#0F2D5C"/>
<path d="M79.073 126.097C68.473 126.822 69.822 143.257 69.822 143.257C69.822 143.257 78.568 143.51 81.176 142.757C83.0667 142.106 84.8431 141.161 86.4399 139.957C86.4399 139.957 88.04 146.182 92.428 146.529L96.811 146.876C96.811 146.876 99.7021 135.058 97.4111 129.729C92.6761 118.679 83.209 124.21 79.073 126.097Z" fill="#0F2D5C"/>
<path d="M90.6422 142.007C90.0142 143.622 88.5291 144.552 87.3241 144.084C86.1191 143.616 85.6522 141.927 86.2802 140.311C86.9082 138.695 88.3933 137.765 89.5983 138.234C90.8033 138.703 91.2702 140.395 90.6422 142.007Z" fill="#F09959"/>
<path d="M95.8799 138.44C95.8799 138.44 98.4238 147.222 101.955 147.671C105.486 148.12 128.055 149.428 122.289 173.114C118.278 189.582 111.164 192.332 118.366 198.384C124.366 203.426 131.454 197.115 131.454 197.115C131.454 197.115 134.923 215.934 120.905 215.693C106.887 215.452 100.193 200.714 105.905 187.193C111.617 173.672 100.305 170.212 99.8369 162.616C99.4864 158.624 99.4864 154.609 99.8369 150.616L95.8799 145.9V138.44Z" fill="#0F2D5C"/>
<path d="M307.48 89.285C307.48 92.0799 306.37 94.7603 304.394 96.7366C302.418 98.7128 299.737 99.8231 296.942 99.8231C294.148 99.8231 291.467 98.7128 289.491 96.7366C287.514 94.7603 286.404 92.0799 286.404 89.285C286.404 86.4902 287.514 83.8098 289.491 81.8336C291.467 79.8573 294.148 78.7471 296.942 78.7471C299.737 78.7471 302.418 79.8573 304.394 81.8336C306.37 83.8098 307.48 86.4902 307.48 89.285Z" fill="#F37168"/>
<path d="M296.841 85.5812C296.841 85.5812 293.161 82.3362 290.557 85.4542C286.982 89.7342 296.841 95.1782 296.841 95.1782C296.841 95.1782 306.877 89.5602 303.367 85.2302C300.711 81.9552 296.841 85.5812 296.841 85.5812Z" fill="white"/>
<path d="M279.818 69.7581C284.436 69.7581 288.179 66.0148 288.179 61.3971C288.179 56.7795 284.436 53.0361 279.818 53.0361C275.2 53.0361 271.457 56.7795 271.457 61.3971C271.457 66.0148 275.2 69.7581 279.818 69.7581Z" fill="#F37168"/>
<path d="M279.738 58.458C279.738 58.458 276.818 55.883 274.751 58.358C271.915 61.758 279.738 66.074 279.738 66.074C279.738 66.074 287.702 61.616 284.916 58.18C282.809 55.582 279.738 58.458 279.738 58.458Z" fill="white"/>
<path d="M298.891 40.8568C303.635 40.8568 307.481 37.0109 307.481 32.2668C307.481 27.5226 303.635 23.6768 298.891 23.6768C294.147 23.6768 290.301 27.5226 290.301 32.2668C290.301 37.0109 294.147 40.8568 298.891 40.8568Z" fill="#F37168"/>
<path d="M298.807 29.2467C298.807 29.2467 295.807 26.6018 293.684 29.1468C290.769 32.6358 298.807 37.0738 298.807 37.0738C298.807 37.0738 306.988 32.4938 304.126 28.9648C301.962 26.2918 298.807 29.2467 298.807 29.2467Z" fill="white"/>
<path d="M287.661 5.68799C287.661 7.19654 287.062 8.64332 285.995 9.71002C284.928 10.7767 283.482 11.376 281.973 11.376C280.465 11.376 279.018 10.7767 277.951 9.71002C276.884 8.64332 276.285 7.19654 276.285 5.68799C276.285 4.17944 276.884 2.73269 277.951 1.66599C279.018 0.599278 280.465 0 281.973 0C283.482 0 284.928 0.599278 285.995 1.66599C287.062 2.73269 287.661 4.17944 287.661 5.68799Z" fill="#F37168"/>
<path d="M281.918 3.68916C281.918 3.68916 279.932 1.93716 278.525 3.62016C276.595 5.93016 281.918 8.86919 281.918 8.86919C281.918 8.86919 287.335 5.83619 285.44 3.49919C284.007 1.73219 281.918 3.68916 281.918 3.68916Z" fill="white"/>
<path d="M100.872 113.123C104.987 109.008 104.987 102.336 100.872 98.2203C96.7567 94.1049 90.0844 94.1049 85.9691 98.2203C81.8537 102.336 81.8537 109.008 85.9691 113.123C90.0844 117.239 96.7567 117.239 100.872 113.123Z" fill="#F37168"/>
<path d="M93.3162 101.968C93.3162 101.968 89.6372 98.7228 87.0322 101.841C83.4562 106.121 93.3162 111.565 93.3162 111.565C93.3162 111.565 103.353 105.946 99.8421 101.617C97.1871 98.3428 93.3162 101.968 93.3162 101.968Z" fill="white"/>
<path d="M101.281 80.0132C105.393 78.3222 107.356 73.6182 105.665 69.5064C103.974 65.3947 99.2697 63.4322 95.1579 65.1232C91.0461 66.8142 89.0837 71.5182 90.7747 75.63C92.4656 79.7417 97.1697 81.7042 101.281 80.0132Z" fill="#F37168"/>
<path d="M98.1418 69.7388C98.1418 69.7388 95.3307 67.2597 93.3417 69.6387C90.6107 72.9087 98.1418 77.0677 98.1418 77.0677C98.1418 77.0677 105.81 72.7758 103.128 69.4678C101.099 66.9688 98.1418 69.7388 98.1418 69.7388Z" fill="white"/>
<path d="M74.8146 54.909C78.5702 54.909 81.6146 51.8645 81.6146 48.109C81.6146 44.3535 78.5702 41.309 74.8146 41.309C71.0591 41.309 68.0146 44.3535 68.0146 48.109C68.0146 51.8645 71.0591 54.909 74.8146 54.909Z" fill="#F37168"/>
<path d="M74.7489 45.7192C74.7489 45.7192 72.3737 43.6252 70.6937 45.6372C68.3857 48.3992 74.7489 51.9122 74.7489 51.9122C74.7489 51.9122 81.2258 48.2862 78.9598 45.4932C77.2458 43.3802 74.7489 45.7192 74.7489 45.7192Z" fill="white"/>
<path d="M270.191 183.308H166.561C165.315 183.308 164.112 182.849 163.181 182.019C162.251 181.19 161.658 180.046 161.516 178.808L150.203 79.5158C150.122 78.805 150.192 78.085 150.408 77.4032C150.625 76.7214 150.983 76.093 151.46 75.5593C151.936 75.0255 152.52 74.5985 153.173 74.3062C153.826 74.0138 154.533 73.8627 155.248 73.8628H258.877C260.123 73.8625 261.327 74.3211 262.257 75.1509C263.188 75.9808 263.781 77.124 263.923 78.3628L275.236 177.655C275.317 178.366 275.247 179.085 275.03 179.767C274.813 180.449 274.455 181.077 273.979 181.611C273.503 182.145 272.919 182.572 272.266 182.864C271.613 183.157 270.906 183.308 270.191 183.308V183.308Z" fill="#430A56"/>
<path d="M223.523 95.3867C227.898 104.136 224.277 114.211 215.671 117.771C207.009 121.354 197.538 119.319 193.163 110.571C188.788 101.823 192.037 91.3297 200.421 87.1377C208.805 82.9457 219.148 86.6377 223.523 95.3867Z" fill="#FFC34E"/>
<path d="M199.941 118.86C198.966 118.86 197.053 118.516 194.625 116.36C192.488 114.324 191.075 111.646 190.598 108.733C189.836 104.759 190.333 100.192 192.074 95.1581C192.095 95.0977 192.127 95.042 192.17 94.9942C192.212 94.9465 192.264 94.9075 192.321 94.8797C192.379 94.8518 192.442 94.8356 192.505 94.8319C192.569 94.8282 192.633 94.8371 192.694 94.8581C192.754 94.8791 192.81 94.9118 192.857 94.9543C192.905 94.9968 192.944 95.0484 192.972 95.106C193 95.1636 193.016 95.226 193.02 95.2899C193.024 95.3537 193.014 95.4177 192.993 95.4781C191.308 100.348 190.825 104.747 191.555 108.551C191.991 111.253 193.295 113.738 195.271 115.632C198.32 118.337 200.363 117.85 200.383 117.845C200.508 117.811 200.641 117.829 200.753 117.893C200.866 117.958 200.948 118.064 200.982 118.189C201 118.25 201.006 118.315 200.998 118.378C200.991 118.441 200.972 118.503 200.941 118.559C200.909 118.614 200.868 118.663 200.817 118.703C200.767 118.743 200.71 118.772 200.649 118.789C200.417 118.843 200.179 118.867 199.941 118.86V118.86Z" fill="#FFC34E"/>
<path d="M244.812 130.984C244.812 130.984 242.612 130.21 241.444 125.415C240.844 122.947 242.444 118.679 243.778 117.345C242.911 114.877 239.577 105.667 241.043 105.673C242.525 105.679 245.844 115.873 245.844 115.873C245.844 115.873 247.644 106.402 248.779 106.535C249.914 106.668 248.779 116.406 248.779 116.406C248.779 116.406 252.81 117.085 254.048 120.741C255.286 124.397 251.421 130.128 251.421 130.928C251.421 131.728 250.979 134.281 250.979 134.281L244.644 133.281L244.812 130.984Z" fill="#E38540"/>
<path d="M249.783 116.091C250.853 116.3 251.815 116.879 252.503 117.725C252.985 117.912 253.395 118.247 253.673 118.683C253.951 119.118 254.084 119.631 254.051 120.147C253.997 121.035 251.777 124.047 250.28 125.232C248.448 126.683 247.553 125.282 247.98 124.815C248.407 124.348 247.113 124.348 246.58 123.748C246.047 123.148 248.247 118.904 248.58 117.725C248.913 116.546 249.178 116.014 249.783 116.091Z" fill="#F09959"/>
<path d="M246.497 122.88C249.581 123.413 251.982 123.28 251.849 122.413C251.716 121.546 248.837 120.193 248.049 119.699C247.261 119.205 246.497 122.88 246.497 122.88Z" fill="#E38540"/>
<path d="M246.447 125.482C248.147 128.69 246.114 131.351 244.813 130.982C243.512 130.613 241.588 127.682 241.313 124.282C241.038 120.882 241.244 120.815 242.513 119.082C243.782 117.349 247.381 119.015 248.381 119.982C249.381 120.949 251.516 121.816 250.581 122.416C249.646 123.016 246.981 122.416 246.01 122.016C245.039 121.616 245.11 122.616 244.645 123.083C244.18 123.55 245.247 123.213 246.447 125.482Z" fill="#F09959"/>
<path d="M213.318 129.433C224.369 135.486 237.506 165.042 237.506 165.042C237.506 165.042 240.929 138.616 243.978 132.685C244.76 131.164 250.978 132.211 251.978 133.748C252.978 135.285 255.178 173.319 250.178 179.914C245.178 186.509 232.97 184.814 232.97 184.814L216.953 170.905L213.318 129.433Z" fill="#A8CEFF"/>
<path d="M242.448 136.875C239.784 145.303 236.377 163.499 237.248 168.434C238.119 173.369 240.048 175.504 240.048 175.504C240.048 175.504 238.581 163.299 239.581 156.495C240.581 149.691 242.448 136.875 242.448 136.875Z" fill="#93BBF0"/>
<path d="M231.137 183.222C236.765 182.637 241.537 182.108 240.376 182.108C237.776 182.108 225.702 175.145 226.703 168.368C227.704 161.591 227.837 148.159 224.503 142.222L223.38 139.746C219.78 134.822 217.169 131.546 213.318 129.433L216.95 170.902L231.137 183.222Z" fill="#93BBF0"/>
<path d="M195.01 126.364C195.01 126.364 179.17 135.215 175.478 137.097C171.786 138.979 185.822 194.226 188.944 196.597C192.066 198.968 219.544 197.004 222.678 194.021C225.812 191.038 220.278 181.883 222.985 163.554C225.692 145.225 214.726 129.399 213.317 129.434C211.908 129.469 202.717 126.367 202.717 126.367L195.01 126.364Z" fill="#A8CEFF"/>
<path d="M188.945 196.596C192.067 198.964 211.734 199.017 220.105 196.412C221.051 196.118 225.34 194.412 225.44 192.802C224.43 192.612 220.419 193.094 218.791 192.72C213.129 191.42 210.011 184.405 210.011 184.405C210.011 184.405 206.893 183.283 199.918 180.329C192.943 177.375 195.818 168.429 195.651 164.492C195.484 160.555 188.758 147.671 176.122 137.906L174.963 138.425C174.061 147.405 186.057 194.406 188.945 196.596Z" fill="#93BBF0"/>
<path d="M174.234 138.137C166.604 162.537 155.786 190.217 157.509 190.217C159.232 190.217 203.046 191.988 204.77 190.517C206.494 189.046 206.001 183.38 205.756 182.642C205.511 181.904 180.846 177.527 180.846 177.527C180.846 177.527 184.094 171.198 185.325 158.827C186.556 146.456 175.682 133.51 174.234 138.137Z" fill="#A8CEFF"/>
<path d="M200.813 105.167L194.666 127.629C194.666 127.629 205.053 143.841 207.908 142.401C210.763 140.961 206.308 129.224 206.308 127.629C206.308 126.034 210.76 109.578 210.76 109.578L200.813 105.167Z" fill="#F09959"/>
<path d="M206.525 128.773C206.418 128.399 206.346 128.016 206.312 127.628C206.312 126.033 210.764 109.577 210.764 109.577L200.813 105.166L198.779 112.599C200.061 118.522 202.714 124.062 206.525 128.773Z" fill="#E38540"/>
<path d="M223.811 104.795C224.982 111.308 224.211 119.959 218.427 122.158C212.643 124.357 205.677 120.15 202.866 112.758C200.055 105.366 202.466 97.5937 208.251 95.3947C214.036 93.1957 222.412 97.0137 223.811 104.795Z" fill="#F09959"/>
<path d="M211.611 114.652C211.611 114.652 216.552 116.552 219.27 116.514C220.321 116.576 221.375 116.501 222.407 116.292C222.407 116.292 220.53 120.055 218.138 119.82C216.68 119.644 215.298 119.068 214.146 118.156C212.994 117.244 212.117 116.031 211.611 114.652Z" fill="white"/>
<path d="M204.239 108.465C205.05 110.742 204.346 113.072 202.667 113.67C200.988 114.268 198.967 112.907 198.159 110.63C197.351 108.353 198.052 106.023 199.732 105.425C201.412 104.827 203.428 106.183 204.239 108.465Z" fill="#F09959"/>
<path d="M223.88 96.6118C221.911 111.896 203.341 109.927 203.341 109.927C203.341 109.927 199.511 104.892 197.788 107.533C196.065 110.174 200.179 92.0328 210.834 91.4658C214.335 91.2778 223.88 96.6118 223.88 96.6118Z" fill="#FFC34E"/>
<path d="M194.949 99.5859C200.504 99.5859 205.007 95.3612 205.007 90.1499C205.007 84.9385 200.504 80.7139 194.949 80.7139C189.394 80.7139 184.891 84.9385 184.891 90.1499C184.891 95.3612 189.394 99.5859 194.949 99.5859Z" fill="#FFC34E"/>
<path d="M139.375 88.0938C155.116 88.0938 167.876 75.3335 167.876 59.5928C167.876 43.8521 155.116 31.0918 139.375 31.0918C123.634 31.0918 110.874 43.8521 110.874 59.5928C110.874 75.3335 123.634 88.0938 139.375 88.0938Z" fill="#0E3A82"/>
<path d="M138.738 40.8198C142.438 40.3098 145.619 49.4857 145.364 52.4197C145.109 55.3537 152.246 52.0377 155.688 54.5867C159.13 57.1357 158.11 70.3867 155.688 71.2817C153.266 72.1767 143.5 72.3018 140.354 70.6448C138.767 69.6901 136.935 69.2218 135.084 69.2977L133.464 55.4327C134.99 54.8784 136.392 54.0289 137.589 52.9327C139.757 51.0147 138.738 40.8198 138.738 40.8198ZM122.298 73.3198C123.189 74.0848 133.258 76.5058 133.768 71.4078C134.278 66.3098 131.729 55.4778 131.729 55.4778C131.729 55.4778 124.729 55.1238 122.299 56.3638C121.364 56.8398 121.406 72.5527 122.297 73.3177L122.298 73.3198Z" fill="white"/>
<path d="M268.002 292.741C276.24 292.741 282.918 286.063 282.918 277.825C282.918 269.587 276.24 262.909 268.002 262.909C259.764 262.909 253.086 269.587 253.086 277.825C253.086 286.063 259.764 292.741 268.002 292.741Z" fill="#C1C765"/>
<path d="M260.887 285.73C258.687 272.551 268.772 272.23 268.772 272.23V268.325L276.766 276.319L269.066 284.019V279.55C269.066 279.55 265.194 279.713 263.73 281.828C262.266 283.943 260.887 285.73 260.887 285.73Z" fill="white"/>
<path d="M226.768 237.3C227.03 236.187 226.341 235.072 225.229 234.81C224.116 234.547 223.001 235.236 222.738 236.349C222.476 237.461 223.165 238.576 224.277 238.839C225.39 239.102 226.505 238.413 226.768 237.3Z" fill="white"/>
<path d="M226.768 246.617C227.03 245.504 226.341 244.389 225.229 244.127C224.116 243.864 223.001 244.553 222.738 245.666C222.476 246.778 223.165 247.893 224.277 248.156C225.39 248.418 226.505 247.729 226.768 246.617Z" fill="white"/>
<path d="M219.06 241.64C219.06 241.912 219.007 242.181 218.903 242.433C218.799 242.684 218.646 242.912 218.454 243.105C218.262 243.297 218.034 243.449 217.782 243.554C217.531 243.658 217.262 243.711 216.99 243.711C216.441 243.711 215.914 243.493 215.526 243.105C215.137 242.716 214.919 242.189 214.919 241.64C214.919 241.091 215.137 240.564 215.526 240.176C215.914 239.787 216.441 239.569 216.99 239.569C217.262 239.569 217.531 239.623 217.782 239.727C218.034 239.831 218.262 239.984 218.454 240.176C218.646 240.368 218.799 240.596 218.903 240.848C219.007 241.099 219.06 241.368 219.06 241.64V241.64Z" fill="white"/>
<path d="M224.752 246.942C224.611 246.942 224.473 246.905 224.352 246.834L216.587 242.334C216.467 242.265 216.367 242.166 216.297 242.047C216.227 241.928 216.189 241.792 216.187 241.654C216.185 241.516 216.219 241.38 216.285 241.258C216.351 241.137 216.448 241.035 216.566 240.962L224.33 236.145C224.51 236.034 224.727 235.999 224.933 236.047C225.139 236.096 225.318 236.224 225.43 236.404C225.541 236.584 225.576 236.802 225.528 237.008C225.479 237.214 225.351 237.393 225.171 237.504L218.541 241.618L225.151 245.449C225.242 245.502 225.321 245.572 225.385 245.655C225.449 245.739 225.496 245.834 225.523 245.936C225.55 246.037 225.557 246.143 225.543 246.248C225.529 246.352 225.495 246.452 225.442 246.543C225.372 246.664 225.271 246.765 225.15 246.835C225.029 246.905 224.892 246.942 224.752 246.942V246.942Z" fill="white"/>
<defs>
<linearGradient id="paint0_linear_2005_6834" x1="326.451" y1="62.0788" x2="16.2105" y2="209.239" gradientUnits="userSpaceOnUse">
<stop stop-color="#DB5FDD"/>
<stop offset="1" stop-color="#4C13BF"/>
</linearGradient>
<linearGradient id="paint1_linear_2005_6834" x1="2551.26" y1="140.448" x2="2428.34" y2="178.847" gradientUnits="userSpaceOnUse">
<stop stop-color="#FFC34E"/>
<stop offset="1" stop-color="#FB8627"/>
</linearGradient>
<linearGradient id="paint2_linear_2005_6834" x1="2532.08" y1="124.272" x2="2416.66" y2="220.579" gradientUnits="userSpaceOnUse">
<stop stop-color="#FFC34E"/>
<stop offset="1" stop-color="#FB8627"/>
</linearGradient>
<linearGradient id="paint3_linear_2005_6834" x1="2554.98" y1="103.094" x2="2459.51" y2="195.148" gradientUnits="userSpaceOnUse">
<stop stop-color="#FFC34E"/>
<stop offset="1" stop-color="#FB8627"/>
</linearGradient>
<linearGradient id="paint4_linear_2005_6834" x1="2549.08" y1="131.831" x2="2440.29" y2="253.003" gradientUnits="userSpaceOnUse">
<stop stop-color="#FFC34E"/>
<stop offset="1" stop-color="#FB8627"/>
</linearGradient>
</defs>
</svg>
